<?xml version="1.0" encoding="UTF-8"?>
<!-- Generator: Adobe Illustrator 25.4.1, SVG Export Plug-In . SVG Version: 6.00 Build 0)  -->
<svg version="1.1" id="Capa_1" xmlns="http://www.w3.org/2000/svg" xmlns:xlink="http://www.w3.org/1999/xlink" x="0px" y="0px" viewBox="0 0 155 45" style="enable-background:new 0 0 155 45;" xml:space="preserve">
<style type="text/css">
	.st0{fill-rule:evenodd;clip-rule:evenodd;fill:#FFFFFF;}
	.st1{fill:#FFFFFF;}
</style>
<g>
	<g>
		<g>
			<path class="st0" d="M26.57,15.84c0.19,0.06,0.39,0.09,0.57-0.07l9.26-12.93l10.36,15.49c2.11,4.29,0.92,8.65-0.49,11     c-2.43,4.01-7.42,6.8-13.64,4.91L14.3,34.34l0.68-1.07l17.05,0.58c0.02-0.59,0.05-1.03,0.24-1.78l-16.89,0.65l1.24-1.69     l15.79,0.62c0.11-0.6,0.36-1.23,0.59-1.83l-16,0.68l1.24-1.7l15.04,0.57c0.25-0.58,0.65-1.18,1.02-1.71l-15.65,0.57l1.24-1.71     l14.83,0.62c0.5-0.63,1.01-1.18,1.61-1.72l-16.05,0.58l0.47-0.65c-0.29-0.37-0.56-0.74-0.82-1.13l17.19,0.68     c1.35-1,4.01-0.86,5.12,0.18l0.52,0.32c0.46,0.58,0.72,0.97,1.11,1.59c0.06,0.08,0.16,0.21,0.3,0c0.27-0.34,0.68-1.01,0.83-1.68     l-2.25,0.09l-0.52-0.31l2.84-0.02c0.11-0.6,0.13-1.28,0.1-1.85l-25.52,0.49c-0.42-1.13-0.58-2.32-0.36-3.57     c0.72,0.92,3.18,2.11,3.63,2.06l22.16,0.56c-0.06-0.59-0.15-1.2-0.42-1.78l-22.48,0.38c-0.45-0.51-0.69-1.07-0.87-1.7l13.38,0.5     l-1.96-1.07c1.48-0.03,2.7-0.07,4.18-0.11c0.62,0.07,0.8,0.04,1.11,0.49c0.09,0.14,0.11,0.32,0.16,0.48     c0.04,0.16,0.07,0.3,0.24,0.37c0.03,0.01,0.08,0.02,0.1,0.02c1.48,0.01,4.29,0.05,5.93,0.1c-0.73-1.11-1.45-1.51-2.61-1.99     L21.25,19.3c-0.14-0.74-0.15-1.41-0.03-2.21c0.01-0.07,0.07-0.08,0.11-0.03c0.66,0.73,1.74,1.53,2.94,1.76     c0.14,0.03,0.14,0.02,0.1-0.05c-0.1-0.15-0.72-1.13-0.5-1.13l15.63,0.42c0.3,0.01-0.75-1.69-2.19-1.83     c-0.01,0-12.59,0.79-13.58,0.83c-0.02,0-0.07-0.01-0.07-0.04c-0.32-1.17-0.39-1.82-0.2-3.08c0-0.01,0.01-0.01,0.02-0.01     C24.45,14.94,25.59,15.58,26.57,15.84"/>
			<path id="XMLID_00000029045987061543830900000004954309081756705673_" class="st0" d="M54.16,16.71H65.8     c0.59,0,1.01,0.51,1.05,1.01v7c0,0.59-0.51,1.1-1.05,1.1h-7.63v-3h5.06c0.21,0,0.42-0.17,0.42-0.38c0-0.8,0-1.6,0-2.4     c0-0.21-0.17-0.42-0.42-0.42h-5.95v9.78h-3.12L54.16,16.71L54.16,16.71z M69.84,16.71h10.92v2.91H72.5     c-0.29,0-0.55,0.29-0.51,0.55l-0.04,1.52h7.84v2.82h-7.84c0,0.55,0,1.05,0,1.6c0,0.29,0.25,0.51,0.55,0.55h9.87     c0.25-0.04,0.47-0.25,0.51-0.55v-9.4h3.33c0.55,0,1.01,0.59,1.27,1.01c1.52,2.36,2.53,4.93,4.05,7.3c0.25,0.42,0.25,0.42,0.47,0     l4.05-7.3c0.29-0.55,0.72-1.01,1.31-1.01h3.12V29.4h-3.12v-7.51l-3.92,7.09c-0.09,0.17-0.21,0.42-0.47,0.42h-2.32     c-0.25,0-0.42-0.25-0.55-0.42l-3.88-7.09v6.54c0,0.55-0.47,0.97-0.97,0.97h-15.4c-0.55,0-1.01-0.42-1.01-0.97V17.72     C68.83,17.17,69.3,16.75,69.84,16.71L69.84,16.71z M102.87,17.89c0-0.63,0.59-1.18,1.22-1.18h10.71v2.95h-8.18     c-0.42-0.04-0.76,0.34-0.76,0.72v1.35l7.72-0.04v2.82h-7.68v1.6c0,0.29,0.34,0.55,0.72,0.55h12.23c0.13,0,0.21,0,0.34-0.13     c0.84-1.01,1.73-2.02,2.57-3.04c0.17-0.21,0.17-0.34,0-0.55l-2.66-3.04c0.09,0.13-0.29-0.29-0.47-0.29h-1.98v-2.91     c1.18,0,1.98,0,3.2,0c0.8,0.04,1.22,0.8,1.64,1.22l2.24,2.7c0.21,0.25,0.21,0.25,0.42,0l2.32-2.74c0.29-0.34,0.97-1.18,1.6-1.18     h3.08v2.91c-0.63,0-1.27,0-1.9,0c-0.13,0-0.25,0.04-0.34,0.17l-2.66,3.16c-0.25,0.29-0.25,0.29-0.04,0.55l2.53,3.04     c0.17,0.13,0.29,0.13,0.51,0.13h1.86v2.74h-3.8c-0.21,0-0.59-0.09-0.72-0.21l-2.82-3.42l-2.78,3.42     c-0.13,0.13-0.47,0.21-0.76,0.21h-16.15c-0.67,0-1.22-0.47-1.22-1.14V17.89z"/>
			<g>
				<path class="st1" d="M14.94,41.53c0.03-0.15,0.05-0.55,0.05-0.99v-1.02c0-0.32-0.01-0.82-0.09-0.92      c-0.08-0.1-0.29-0.19-0.47-0.25l0.08-0.36h0.99c0.21,0,0.86-0.04,1.16-0.04c1.05,0,1.69,0.43,1.69,1.33      c0,0.92-0.69,1.46-1.74,1.46c-0.26,0-0.42-0.02-0.59-0.04c0.01,0.3,0.04,0.69,0.08,0.77c0.1,0.1,0.37,0.18,0.59,0.24l-0.08,0.36      H14.5l-0.08-0.36L14.94,41.53z M16,40.11c0.16,0.03,0.35,0.04,0.49,0.04c0.2,0,0.39-0.02,0.54-0.08      c0.12-0.11,0.24-0.36,0.24-0.77c0-0.35-0.11-0.59-0.23-0.71c-0.12-0.09-0.3-0.14-0.52-0.14c-0.16,0-0.33,0.02-0.46,0.06      c-0.03,0.16-0.05,0.55-0.05,0.99L16,40.11L16,40.11z"/>
				<path class="st1" d="M18.87,40.14c0-1.35,1.05-2.26,2.27-2.26c1.22,0,2.06,0.77,2.06,2.02c0,1.33-1,2.26-2.22,2.26      C19.73,42.16,18.87,41.4,18.87,40.14z M21.82,41.32c0.13-0.23,0.25-0.66,0.25-1.19c0-1.01-0.31-1.63-1.08-1.63      c-0.26,0-0.49,0.06-0.65,0.18c-0.22,0.31-0.36,0.77-0.36,1.33c0,0.94,0.42,1.53,1.12,1.53C21.42,41.55,21.67,41.46,21.82,41.32z      "/>
				<path class="st1" d="M24.44,41.53c0.03-0.15,0.05-0.55,0.05-0.99v-1.02c0-0.32-0.01-0.82-0.09-0.92      c-0.06-0.09-0.29-0.19-0.47-0.25l0.08-0.36H25c0.21,0,0.86-0.04,1.16-0.04c1.01,0,1.64,0.35,1.64,1.07      c0,0.54-0.41,0.89-0.8,1.09c0.29,0.56,0.61,1.11,0.82,1.4l0.39,0.2l-0.08,0.36c-0.39,0-0.74,0.01-1.2,0.03      c-0.19-0.47-0.46-1.03-0.79-1.66h-0.63v0.1c0,0.32,0.01,0.82,0.09,0.92c0.06,0.09,0.29,0.19,0.47,0.25L26,42.06h-1.99      l-0.08-0.36L24.44,41.53z M25.51,39.85l0.88,0.04c0.17-0.14,0.33-0.39,0.33-0.75c0-0.24-0.06-0.41-0.14-0.53      c-0.11-0.1-0.32-0.15-0.55-0.15c-0.16,0-0.33,0.02-0.47,0.06c-0.03,0.16-0.05,0.55-0.05,0.99V39.85z"/>
				<path class="st1" d="M31.15,41.53c0.03-0.15,0.05-0.55,0.05-0.99v-1.02c0-0.32-0.01-0.82-0.09-0.92      c-0.08-0.1-0.29-0.19-0.47-0.25l0.08-0.36h1.63c0.74,0,1.33-0.02,1.81-0.05c0.06,0.08,0.14,0.2,0.18,0.28      c-0.05,0.29-0.16,0.8-0.2,1c-0.13,0.01-0.47-0.01-0.61-0.03l-0.15-0.68c-0.17-0.03-0.4-0.05-0.62-0.05      c-0.18,0-0.35,0.01-0.5,0.01c-0.01,0.18-0.04,0.59-0.04,1.05v0.3l1.23-0.07l0.12,0.15c-0.03,0.15-0.06,0.33-0.09,0.48      l-1.26-0.05v0.2c0,0.32,0.01,0.82,0.09,0.92c0.01,0.01,0.03,0.03,0.04,0.04c0.11,0.07,0.33,0.09,0.54,0.09      c0.2,0,0.42-0.02,0.57-0.05l0.2-0.71c0.16-0.01,0.52,0.01,0.66,0.03c0.01,0.39,0.01,0.8,0,1.2h-3.6l-0.08-0.36L31.15,41.53z"/>
				<path class="st1" d="M35.7,41.53c0.03-0.15,0.05-0.55,0.05-0.99v-1.02c0-0.32-0.01-0.82-0.09-0.92      c-0.06-0.09-0.29-0.19-0.47-0.25l0.08-0.36h1.99l0.08,0.36l-0.51,0.18c-0.03,0.15-0.05,0.55-0.05,0.99v1.02      c0,0.32,0.01,0.82,0.09,0.92c0.01,0.01,0.03,0.03,0.04,0.05c0.11,0.06,0.32,0.07,0.52,0.07c0.19,0,0.39-0.01,0.53-0.04l0.2-0.76      c0.16-0.01,0.52,0.01,0.66,0.03c0.01,0.4,0.01,0.83,0,1.25h-3.55l-0.08-0.36L35.7,41.53z"/>
				<path class="st1" d="M41.84,41.53c0.03-0.15,0.05-0.55,0.05-0.99v-1.02c0-0.32-0.01-0.82-0.09-0.92      c-0.06-0.09-0.29-0.19-0.47-0.25l0.08-0.36h0.99c0.21,0,0.86-0.04,1.16-0.04c1.01,0,1.63,0.35,1.63,1.07      c0,0.54-0.41,0.89-0.8,1.09c0.29,0.56,0.61,1.11,0.82,1.4l0.39,0.2l-0.08,0.36c-0.39,0-0.74,0.01-1.2,0.03      c-0.19-0.47-0.46-1.03-0.79-1.66h-0.62v0.1c0,0.32,0.01,0.82,0.09,0.92c0.06,0.09,0.29,0.19,0.47,0.25l-0.08,0.36h-1.99      l-0.08-0.36L41.84,41.53z M42.91,39.85l0.88,0.04c0.17-0.14,0.33-0.39,0.33-0.75c0-0.24-0.06-0.41-0.14-0.53      c-0.11-0.1-0.32-0.15-0.55-0.15c-0.16,0-0.33,0.02-0.47,0.06c-0.03,0.16-0.05,0.55-0.05,0.99      C42.91,39.51,42.91,39.85,42.91,39.85z"/>
				<path class="st1" d="M46.77,41.53c0.03-0.15,0.05-0.55,0.05-0.99v-1.02c0-0.32-0.01-0.82-0.09-0.92      c-0.08-0.1-0.29-0.19-0.47-0.25l0.08-0.36h1.63c0.74,0,1.33-0.02,1.81-0.05c0.06,0.08,0.14,0.2,0.18,0.28      c-0.05,0.29-0.16,0.8-0.2,1c-0.13,0.01-0.47-0.01-0.61-0.03L49,38.51c-0.17-0.03-0.4-0.05-0.62-0.05c-0.18,0-0.35,0.01-0.5,0.01      c-0.01,0.18-0.04,0.59-0.04,1.05v0.3l1.23-0.07l0.12,0.15c-0.03,0.15-0.06,0.33-0.09,0.48l-1.26-0.05v0.2      c0,0.32,0.01,0.82,0.09,0.92c0.01,0.01,0.03,0.03,0.04,0.04c0.11,0.07,0.33,0.09,0.54,0.09c0.2,0,0.42-0.02,0.57-0.05l0.2-0.71      c0.16-0.01,0.52,0.01,0.66,0.03c0.01,0.39,0.01,0.8,0,1.2h-3.6l-0.08-0.36L46.77,41.53z"/>
				<path class="st1" d="M50.91,39.16c0-0.76,0.8-1.28,1.73-1.28c0.5,0,0.96,0.13,1.3,0.33l0.1,0.18c-0.05,0.26-0.16,0.73-0.2,0.88      c-0.14,0.01-0.49-0.01-0.64-0.03c-0.04-0.32-0.09-0.52-0.15-0.68c-0.14-0.1-0.3-0.15-0.54-0.15c-0.18,0-0.36,0.05-0.44,0.09      c-0.06,0.09-0.1,0.24-0.1,0.4c0,0.98,2.11,0.66,2.11,2.1c0,0.7-0.68,1.17-1.65,1.17c-0.69,0-1.21-0.14-1.54-0.36      c-0.01-0.32,0-0.64,0.03-0.95c0.16-0.03,0.52-0.05,0.68-0.03c0.06,0.31,0.13,0.52,0.19,0.67c0.13,0.09,0.35,0.14,0.63,0.14      c0.19,0,0.36-0.04,0.45-0.08c0.08-0.09,0.14-0.24,0.14-0.43C53.03,40.36,50.91,40.58,50.91,39.16z"/>
				<path class="st1" d="M57.8,41.39c0.05-0.12,0.14-0.39,0.23-0.72c0.15-0.01,0.54,0.01,0.69,0.03c0.01,0.25,0.03,0.65,0.03,0.87      l-0.09,0.18c-0.35,0.22-0.91,0.41-1.55,0.41c-1.35,0-2.19-0.78-2.19-2.07c0-1.31,1.08-2.21,2.32-2.21c0.59,0,1.09,0.15,1.5,0.36      l0.1,0.18c-0.06,0.31-0.16,0.76-0.23,1.05c-0.14,0.01-0.48-0.01-0.64-0.03c-0.06-0.33-0.13-0.62-0.2-0.75      c-0.13-0.09-0.39-0.18-0.69-0.18c-0.26,0-0.49,0.06-0.62,0.14c-0.26,0.31-0.43,0.82-0.43,1.38c0,0.89,0.45,1.48,1.2,1.48      C57.5,41.5,57.66,41.45,57.8,41.39z"/>
				<path class="st1" d="M61.4,42.06h-1.83l-0.08-0.36l0.48-0.23c0.35-0.71,0.78-1.81,1.2-2.87l0.19-0.57      c0.15-0.04,0.76-0.12,1.08-0.1c0.05,0.18,0.11,0.43,0.21,0.67c0.43,1.08,0.91,2.36,1.15,2.9l0.54,0.2l-0.08,0.36h-2.01      l-0.08-0.36l0.51-0.18c-0.07-0.2-0.15-0.45-0.24-0.71l-1.45,0.04c-0.06,0.22-0.13,0.43-0.19,0.63l0.66,0.23L61.4,42.06z       M62.28,40.3c-0.17-0.48-0.36-1-0.56-1.5c-0.18,0.45-0.36,0.97-0.53,1.48L62.28,40.3z"/>
				<path class="st1" d="M66.34,41.53c0.03-0.15,0.05-0.55,0.05-0.99v-2.07h-0.03c-0.18,0-0.37,0.01-0.52,0.03l-0.2,0.78      c-0.17,0.01-0.54-0.01-0.68-0.03c-0.01-0.4-0.01-0.84,0-1.25h2.05c0.68,0,1.23-0.02,1.67-0.05c0.06,0.08,0.14,0.2,0.18,0.28      c-0.01,0.33-0.06,0.72-0.1,1.03c-0.14,0.02-0.49,0.01-0.63-0.01l-0.19-0.75c-0.15-0.01-0.35-0.03-0.54-0.03v2.07      c0,0.32,0.01,0.82,0.09,0.92c0.06,0.09,0.29,0.19,0.47,0.25l-0.08,0.36H65.9l-0.08-0.36L66.34,41.53z"/>
				<path class="st1" d="M70.12,41.53c0.03-0.15,0.05-0.55,0.05-0.99v-1.02c0-0.32-0.01-0.82-0.09-0.92      c-0.08-0.1-0.29-0.19-0.47-0.25l0.08-0.36h1.63c0.74,0,1.33-0.02,1.81-0.05c0.06,0.08,0.14,0.2,0.18,0.28      c-0.05,0.29-0.16,0.8-0.2,1c-0.13,0.01-0.47-0.01-0.61-0.03l-0.15-0.68c-0.17-0.03-0.4-0.05-0.62-0.05      c-0.18,0-0.35,0.01-0.5,0.01c-0.01,0.18-0.04,0.59-0.04,1.05v0.3l1.23-0.07l0.12,0.15c-0.03,0.15-0.06,0.33-0.09,0.48      l-1.26-0.05v0.2c0,0.32,0.01,0.82,0.09,0.92c0.01,0.01,0.03,0.03,0.04,0.04c0.11,0.07,0.33,0.09,0.54,0.09      c0.2,0,0.42-0.02,0.57-0.05l0.2-0.71c0.16-0.01,0.52,0.01,0.66,0.03c0.01,0.39,0.01,0.8,0,1.2h-3.61l-0.08-0.36L70.12,41.53z"/>
				<path class="st1" d="M76.45,41.53c0.03-0.15,0.05-0.55,0.05-0.99v-1.02c0-0.32-0.01-0.82-0.09-0.92      c-0.06-0.09-0.29-0.19-0.47-0.25l0.08-0.36h0.91c0.22,0,0.87-0.04,1.17-0.04c1.69,0,2.26,0.94,2.26,2.04      c0,1.42-0.98,2.13-2.08,2.13c-0.37,0-0.93-0.05-1.3-0.05h-0.95l-0.08-0.36L76.45,41.53z M77.64,41.49      c0.12,0.09,0.58,0.17,0.95,0.03c0.44-0.24,0.69-0.77,0.69-1.54c0-0.63-0.23-1.13-0.46-1.32c-0.19-0.12-0.48-0.18-0.77-0.18      c-0.17,0-0.34,0.01-0.47,0.03c-0.03,0.16-0.05,0.55-0.05,0.99v1.02c0,0.32,0.01,0.82,0.09,0.92      C77.62,41.46,77.63,41.48,77.64,41.49z"/>
				<path class="st1" d="M81.57,41.53c0.03-0.15,0.05-0.55,0.05-0.99v-1.02c0-0.32-0.01-0.82-0.09-0.92      c-0.08-0.1-0.29-0.19-0.47-0.25l0.08-0.36h1.63c0.74,0,1.33-0.02,1.81-0.05c0.06,0.08,0.14,0.2,0.18,0.28      c-0.05,0.29-0.16,0.8-0.2,1c-0.13,0.01-0.47-0.01-0.61-0.03l-0.15-0.68c-0.17-0.03-0.4-0.05-0.62-0.05      c-0.18,0-0.35,0.01-0.5,0.01c-0.01,0.18-0.04,0.59-0.04,1.05v0.3l1.23-0.07L84,39.9c-0.03,0.15-0.06,0.33-0.09,0.48l-1.26-0.05      v0.2c0,0.32,0.01,0.82,0.09,0.92c0.01,0.01,0.03,0.03,0.04,0.04c0.11,0.07,0.33,0.09,0.54,0.09c0.2,0,0.42-0.02,0.57-0.05      l0.2-0.71c0.16-0.01,0.52,0.01,0.66,0.03c0.01,0.39,0.01,0.8,0,1.2h-3.61l-0.08-0.36L81.57,41.53z"/>
				<path class="st1" d="M87.9,41.53c0.03-0.15,0.05-0.55,0.05-0.99v-1.02c0-0.32-0.01-0.82-0.09-0.92      c-0.06-0.09-0.29-0.19-0.47-0.25l0.08-0.36h1.99l0.08,0.36l-0.51,0.18c-0.03,0.15-0.05,0.55-0.05,0.99v1.02      c0,0.32,0.01,0.82,0.09,0.92c0.01,0.01,0.03,0.03,0.04,0.05c0.11,0.06,0.32,0.07,0.52,0.07c0.19,0,0.39-0.01,0.53-0.04l0.2-0.76      c0.16-0.01,0.52,0.01,0.66,0.03c0.01,0.4,0.01,0.83,0,1.25h-3.55l-0.08-0.36L87.9,41.53z"/>
				<path class="st1" d="M93.51,42.06h-1.83L91.6,41.7l0.48-0.23c0.35-0.71,0.78-1.81,1.2-2.87l0.19-0.57      c0.15-0.04,0.76-0.12,1.08-0.1c0.05,0.18,0.11,0.43,0.21,0.67c0.43,1.08,0.91,2.36,1.15,2.9l0.54,0.2l-0.08,0.36h-2.01      L94.3,41.7l0.51-0.18c-0.07-0.2-0.15-0.45-0.24-0.71l-1.45,0.04c-0.06,0.22-0.13,0.43-0.19,0.63l0.66,0.23L93.51,42.06z       M94.38,40.3c-0.17-0.48-0.36-1-0.56-1.5c-0.18,0.45-0.36,0.97-0.53,1.48L94.38,40.3z"/>
				<path class="st1" d="M99.06,39.16c0-0.76,0.8-1.28,1.73-1.28c0.5,0,0.96,0.13,1.3,0.33l0.1,0.18c-0.05,0.26-0.16,0.73-0.2,0.88      c-0.14,0.01-0.49-0.01-0.64-0.03c-0.04-0.32-0.09-0.52-0.15-0.68c-0.14-0.1-0.3-0.15-0.54-0.15c-0.18,0-0.36,0.05-0.44,0.09      c-0.06,0.09-0.1,0.24-0.1,0.4c0,0.98,2.11,0.66,2.11,2.1c0,0.7-0.68,1.17-1.65,1.17c-0.69,0-1.21-0.14-1.54-0.36      c-0.01-0.32,0-0.64,0.03-0.95c0.16-0.03,0.52-0.05,0.68-0.03c0.06,0.31,0.13,0.52,0.19,0.67c0.13,0.09,0.35,0.14,0.63,0.14      c0.19,0,0.36-0.04,0.45-0.08c0.08-0.09,0.14-0.24,0.14-0.43C101.18,40.36,99.06,40.58,99.06,39.16z"/>
				<path class="st1" d="M103.08,40.14c0-1.35,1.05-2.26,2.27-2.26c1.22,0,2.06,0.77,2.06,2.02c0,1.33-0.99,2.26-2.22,2.26      C103.94,42.16,103.08,41.4,103.08,40.14z M106.04,41.32c0.13-0.23,0.25-0.66,0.25-1.19c0-1.01-0.31-1.63-1.08-1.63      c-0.26,0-0.49,0.06-0.65,0.18c-0.22,0.31-0.36,0.77-0.36,1.33c0,0.94,0.42,1.53,1.12,1.53      C105.63,41.55,105.89,41.46,106.04,41.32z"/>
				<path class="st1" d="M108.66,41.53c0.03-0.15,0.05-0.55,0.05-0.99v-1.02c0-0.32-0.01-0.82-0.09-0.92      c-0.06-0.09-0.29-0.19-0.47-0.25l0.08-0.36h0.94c0.21,0,0.85-0.04,1.14-0.04c1.01-0.01,1.63,0.35,1.63,1.05      c0,0.45-0.31,0.75-0.68,0.94c0.48,0.12,0.88,0.43,0.88,0.98c0,0.8-0.77,1.2-1.62,1.2c-0.37,0-0.93-0.05-1.3-0.05h-0.98      l-0.08-0.36L108.66,41.53z M109.73,39.75l0.8,0.04c0.16-0.12,0.33-0.35,0.33-0.7c0-0.22-0.06-0.37-0.14-0.48      c-0.11-0.09-0.31-0.14-0.5-0.14c-0.12,0-0.27,0.01-0.39,0.05l-0.05,0.01c-0.03,0.15-0.05,0.55-0.05,0.99V39.75z M109.83,41.48      c0.08,0.07,0.31,0.12,0.55,0.12c0.13,0,0.29-0.02,0.42-0.07c0.15-0.13,0.25-0.37,0.25-0.62c0-0.36-0.22-0.59-0.66-0.59h-0.67      v0.2c0,0.32,0.01,0.82,0.09,0.92C109.82,41.46,109.82,41.47,109.83,41.48z"/>
				<path class="st1" d="M113.53,41.53c0.03-0.15,0.05-0.55,0.05-0.99v-1.02c0-0.32-0.01-0.82-0.09-0.92      c-0.08-0.1-0.29-0.19-0.47-0.25l0.08-0.36h1.63c0.74,0,1.33-0.02,1.81-0.05c0.06,0.08,0.14,0.2,0.18,0.28      c-0.05,0.29-0.16,0.8-0.2,1c-0.13,0.01-0.47-0.01-0.61-0.03l-0.15-0.68c-0.17-0.03-0.4-0.05-0.62-0.05      c-0.18,0-0.35,0.01-0.5,0.01c-0.01,0.18-0.04,0.59-0.04,1.05v0.3l1.23-0.07l0.12,0.15c-0.03,0.15-0.06,0.33-0.09,0.48      l-1.26-0.05v0.2c0,0.32,0.01,0.82,0.09,0.92c0.01,0.01,0.03,0.03,0.04,0.04c0.11,0.07,0.33,0.09,0.54,0.09      c0.2,0,0.42-0.02,0.57-0.05l0.2-0.71c0.16-0.01,0.52,0.01,0.66,0.03c0.01,0.39,0.01,0.8,0,1.2h-3.61l-0.08-0.36L113.53,41.53z"/>
				<path class="st1" d="M118.07,41.53c0.03-0.15,0.05-0.55,0.05-0.99v-1.02c0-0.32-0.01-0.82-0.09-0.92      c-0.06-0.09-0.29-0.19-0.47-0.25l0.08-0.36h0.99c0.21,0,0.86-0.04,1.16-0.04c1.01,0,1.63,0.35,1.63,1.07      c0,0.54-0.41,0.89-0.8,1.09c0.29,0.56,0.61,1.11,0.82,1.4l0.39,0.2l-0.08,0.36c-0.39,0-0.74,0.01-1.2,0.03      c-0.19-0.47-0.46-1.03-0.78-1.66h-0.62v0.1c0,0.32,0.01,0.82,0.09,0.92c0.06,0.09,0.29,0.19,0.47,0.25l-0.08,0.36h-1.99      l-0.08-0.36L118.07,41.53z M119.14,39.85l0.88,0.04c0.17-0.14,0.33-0.39,0.33-0.75c0-0.24-0.06-0.41-0.14-0.53      c-0.11-0.1-0.32-0.15-0.55-0.15c-0.16,0-0.33,0.02-0.47,0.06c-0.03,0.16-0.05,0.55-0.05,0.99V39.85z"/>
				<path class="st1" d="M124.25,42.06h-1.83l-0.08-0.36l0.48-0.23c0.35-0.71,0.78-1.81,1.2-2.87l0.19-0.57      c0.15-0.04,0.76-0.12,1.08-0.1c0.05,0.18,0.11,0.43,0.21,0.67c0.43,1.08,0.91,2.36,1.15,2.9l0.54,0.2l-0.08,0.36h-2.01      l-0.08-0.36l0.51-0.18c-0.07-0.2-0.15-0.45-0.24-0.71l-1.45,0.04c-0.06,0.22-0.13,0.43-0.19,0.63l0.66,0.23L124.25,42.06z       M125.12,40.3c-0.17-0.48-0.36-1-0.56-1.5c-0.18,0.45-0.36,0.97-0.53,1.48L125.12,40.3z"/>
				<path class="st1" d="M128.28,38.59c-0.1-0.09-0.29-0.18-0.47-0.25l0.08-0.36c0.42,0,0.94-0.01,1.33-0.03      c0.33,0.62,1.28,1.76,1.95,2.58c-0.01-1.11-0.06-1.82-0.13-1.95c-0.06-0.08-0.38-0.18-0.6-0.25l0.08-0.36h1.8l0.08,0.36      l-0.51,0.18c-0.06,0.33-0.1,1.66-0.1,3.49l-0.79,0.08l-0.52-0.77c-0.42-0.57-0.96-1.25-1.43-1.8c0.02,1.08,0.06,1.81,0.11,1.93      c0.08,0.09,0.4,0.17,0.68,0.25l-0.08,0.36h-1.86l-0.08-0.36l0.51-0.18c0.03-0.15,0.05-0.67,0.05-1.53      C128.36,39.2,128.35,38.69,128.28,38.59z"/>
				<path class="st1" d="M133.5,41.53c0.03-0.15,0.05-0.55,0.05-0.99v-1.02c0-0.32-0.01-0.82-0.09-0.92      c-0.06-0.09-0.29-0.19-0.47-0.25l0.08-0.36h1.99l0.08,0.36l-0.51,0.18c-0.03,0.15-0.05,0.55-0.05,0.99v1.02      c0,0.32,0.01,0.82,0.09,0.92c0.06,0.09,0.29,0.19,0.47,0.25l-0.08,0.36h-1.99l-0.08-0.36L133.5,41.53z M134.62,36.28      c0.14,0.17,0.31,0.48,0.39,0.71l-0.1,0.21l-1.67,0.42l-0.1-0.05l-0.1-0.31C133.51,36.94,134.1,36.57,134.62,36.28z"/>
				<path class="st1" d="M137.76,42.06h-1.83l-0.08-0.36l0.48-0.23c0.35-0.71,0.78-1.81,1.2-2.87l0.19-0.57      c0.15-0.04,0.76-0.12,1.08-0.1c0.05,0.18,0.11,0.43,0.21,0.67c0.43,1.08,0.91,2.36,1.15,2.9l0.54,0.2l-0.08,0.36h-2.01      l-0.08-0.36l0.51-0.18c-0.07-0.2-0.15-0.45-0.24-0.71l-1.45,0.04c-0.06,0.22-0.13,0.43-0.19,0.63l0.66,0.23L137.76,42.06z       M138.63,40.3c-0.17-0.48-0.36-1-0.56-1.5c-0.18,0.45-0.36,0.97-0.53,1.48L138.63,40.3z"/>
			</g>
		</g>
	</g>
	<g>
		<path class="st1" d="M137.38,23.19c0.53,0,1.04,0.14,1.54,0.41c0.5,0.27,0.89,0.66,1.17,1.16s0.42,1.03,0.42,1.58    c0,0.54-0.14,1.06-0.42,1.56c-0.28,0.5-0.66,0.89-1.16,1.16c-0.5,0.28-1.02,0.42-1.56,0.42c-0.54,0-1.07-0.14-1.56-0.42    s-0.89-0.67-1.16-1.16c-0.28-0.5-0.42-1.02-0.42-1.56c0-0.55,0.14-1.07,0.42-1.58c0.28-0.5,0.67-0.89,1.18-1.16    C136.33,23.33,136.85,23.19,137.38,23.19z M137.38,23.71c-0.44,0-0.87,0.11-1.29,0.34c-0.42,0.23-0.75,0.55-0.98,0.97    c-0.24,0.42-0.35,0.86-0.35,1.31c0,0.45,0.11,0.89,0.35,1.3c0.23,0.42,0.56,0.74,0.97,0.97c0.42,0.23,0.85,0.35,1.3,0.35    c0.45,0,0.89-0.11,1.3-0.35s0.74-0.55,0.97-0.97c0.23-0.42,0.34-0.85,0.34-1.3c0-0.46-0.12-0.89-0.35-1.31    c-0.24-0.42-0.56-0.74-0.98-0.97C138.24,23.83,137.81,23.71,137.38,23.71z M136,28.07v-3.38h1.16c0.4,0,0.68,0.03,0.86,0.09    c0.18,0.06,0.32,0.17,0.42,0.33c0.11,0.16,0.16,0.32,0.16,0.49c0,0.25-0.09,0.46-0.27,0.65s-0.41,0.29-0.7,0.31    c0.12,0.05,0.22,0.11,0.29,0.18c0.14,0.13,0.3,0.36,0.5,0.67l0.41,0.66h-0.67l-0.3-0.53c-0.24-0.42-0.42-0.68-0.57-0.79    c-0.1-0.08-0.24-0.12-0.44-0.12h-0.32v1.44L136,28.07L136,28.07z M136.54,26.17h0.66c0.32,0,0.53-0.05,0.65-0.14    c0.11-0.09,0.17-0.22,0.17-0.37c0-0.1-0.03-0.19-0.08-0.27c-0.06-0.08-0.13-0.14-0.23-0.18c-0.1-0.04-0.28-0.06-0.55-0.06h-0.62    L136.54,26.17L136.54,26.17z"/>
	</g>
</g>
</svg>